<svg height="100" viewBox="0 0 26.458333 26.458334" width="100" xmlns="http://www.w3.org/2000/svg"><path d="m11.844988 270.94872-.461435 1.30528c-.253749.71793-.503949 1.3464-.555996 1.39667-.05205.0502-.325509.16034-.607785.24442-.2822727.0841-.8459747.30647-1.2526603.49418l-.7394328.34132-1.3856442-.66275-1.3856443-.66275-1.077574 1.0774-1.0774086 1.07758.6525599 1.37144.6525591 1.37129-.5077133 1.00422c-.2791688.55233-.5313826 1.13202-.5606727 1.28808-.065974.35169-.1496112.39557-1.7670559.92788l-1.26351912.41583.0232247 1.57661.0232247 1.57676 1.36492792.45593c.7507723.25077 1.4102775.50424 1.4655025.56334.055223.0591.1681893.31913.2509326.57788.082742.25876.3181721.80653.5232502 1.21724.2050763.41071.3728905.78282.3728905.82698 0 .0441-.2748276.66487-.610792 1.3793l-.61096 1.29893 1.1028013 1.09495 1.1026341 1.09495 1.3395344-.64304 1.3395334-.64287.9699842.47347c.5334946.26035 1.1312167.52009 1.3283407.57738l.358357.10425.4327 1.23411c.237966.67881.456358 1.32873.485326 1.44412l.05263.20983 1.582448-.0233 1.58228-.0234.487833-1.40803.487665-1.40803.807096-.30606c.443882-.16835 1.040669-.43134 1.326168-.5844l.519073-.27817 1.359082.64839 1.358913.64855 1.089437-1.09395 1.089436-1.09394-.645042-1.35441-.645039-1.35456.237064-.52726c.130332-.29003.355395-.89023.500197-1.3337l.263295-.80625 1.325835-.48867 1.325834-.48867.02322-1.57076.02305-1.57075-1.268194-.45492c-.697552-.25022-1.3071-.48111-1.354572-.51305-.04747-.0319-.212358-.42195-.366374-.86674-.154016-.4448-.387867-1.02249-.519744-1.28374l-.239905-.47496.664252-1.37997.664256-1.37996-1.087765-1.08559-1.087934-1.08544-1.368437.65039-1.368436.65056-.590746-.29203c-.324986-.1606-.918092-.39422-1.317982-.51908l-.727071-.22703-.481316-1.34339-.481149-1.34354-1.571756-.0222zm1.543689 7.47386c1.315791-.0208 2.556245.50393 3.596928 1.54402.742957.74253 1.109709 1.3694 1.357409 2.32038.169655.65134.167513 1.79861-.0045 2.46539-.449305 1.74155-1.941581 3.23399-3.683133 3.6833v-.00017c-.649361.16757-1.876419.16776-2.511.00032-1.655669-.4368-3.0920045-1.82798-3.6138-3.50002-.2780121-.89087-.2558201-2.07846.055962-2.99048.5391999-1.57726 1.687072-2.73073 3.230385-3.24592.530489-.1771 1.056881-.26869 1.571756-.27683z" fill="#333" stroke-width=".085538" transform="translate(0 -270.54165)"/></svg>