<?xml version="1.0" encoding="UTF-8" standalone="no"?>
<!-- Created with Inkscape (http://www.inkscape.org/) -->

<svg
   xmlns:dc="http://purl.org/dc/elements/1.1/"
   xmlns:cc="http://creativecommons.org/ns#"
   xmlns:rdf="http://www.w3.org/1999/02/22-rdf-syntax-ns#"
   xmlns:svg="http://www.w3.org/2000/svg"
   xmlns="http://www.w3.org/2000/svg"
   xmlns:sodipodi="http://sodipodi.sourceforge.net/DTD/sodipodi-0.dtd"
   xmlns:inkscape="http://www.inkscape.org/namespaces/inkscape"
   width="100"
   height="100"
   viewBox="0 0 26.458333 26.458334"
   version="1.1"
   id="svg8"
   sodipodi:docname="plus.svg"
   inkscape:version="0.92.4 (unknown)">
  <defs
     id="defs2" />
  <sodipodi:namedview
     id="base"
     pagecolor="#ffffff"
     bordercolor="#666666"
     borderopacity="1.0"
     inkscape:pageopacity="0.0"
     inkscape:pageshadow="2"
     inkscape:zoom="3.9322994"
     inkscape:cx="27.262807"
     inkscape:cy="50.304771"
     inkscape:document-units="px"
     inkscape:current-layer="layer1"
     showgrid="false"
     units="px"
     showguides="true"
     inkscape:guide-bbox="true"
     inkscape:window-width="1920"
     inkscape:window-height="1027"
     inkscape:window-x="1920"
     inkscape:window-y="0"
     inkscape:window-maximized="1">
    <sodipodi:guide
       position="13.226523,26.738512"
       orientation="1,0"
       id="guide815"
       inkscape:locked="false" />
    <sodipodi:guide
       position="14.463536,13.226524"
       orientation="0,1"
       id="guide817"
       inkscape:locked="false" />
  </sodipodi:namedview>
  <metadata
     id="metadata5">
    <rdf:RDF>
      <cc:Work
         rdf:about="">
        <dc:format>image/svg+xml</dc:format>
        <dc:type
           rdf:resource="http://purl.org/dc/dcmitype/StillImage" />
        <dc:title></dc:title>
      </cc:Work>
    </rdf:RDF>
  </metadata>
  <g
     inkscape:label="Layer 1"
     inkscape:groupmode="layer"
     id="layer1"
     transform="translate(0,-270.54165)">
    <path
       style="opacity:1;fill:#333333;fill-opacity:1;stroke:none;stroke-width:49.69499969;stroke-linecap:round;stroke-linejoin:round;stroke-miterlimit:4;stroke-dasharray:none;stroke-dashoffset:0;stroke-opacity:1"
       d="M 40.876953 1.9980469 C 39.830026 1.9980469 38.986328 2.8417449 38.986328 3.8886719 L 38.986328 38.138672 L 4.7363281 38.138672 C 3.6894011 38.138672 2.8457031 38.980417 2.8457031 40.027344 L 2.8457031 58.552734 C 2.8457031 59.599661 3.6894011 60.443359 4.7363281 60.443359 L 38.986328 60.443359 L 38.986328 94.693359 C 38.986328 95.740286 39.830026 96.583984 40.876953 96.583984 L 59.402344 96.583984 C 60.449271 96.583984 61.291016 95.740286 61.291016 94.693359 L 61.291016 60.443359 L 95.541016 60.443359 C 96.587943 60.443359 97.431641 59.599661 97.431641 58.552734 L 97.431641 40.027344 C 97.431641 38.980417 96.587943 38.138672 95.541016 38.138672 L 61.291016 38.138672 L 61.291016 3.8886719 C 61.291016 2.8417449 60.449271 1.9980469 59.402344 1.9980469 L 40.876953 1.9980469 z "
       transform="matrix(0.26458333,0,0,0.26458333,0,270.54165)"
       id="rect819" />
  </g>
</svg>
