<?xml version="1.0" encoding="UTF-8" standalone="no"?>
<!-- Created with Inkscape (http://www.inkscape.org/) -->

<svg
   xmlns:dc="http://purl.org/dc/elements/1.1/"
   xmlns:cc="http://creativecommons.org/ns#"
   xmlns:rdf="http://www.w3.org/1999/02/22-rdf-syntax-ns#"
   xmlns:svg="http://www.w3.org/2000/svg"
   xmlns="http://www.w3.org/2000/svg"
   xmlns:sodipodi="http://sodipodi.sourceforge.net/DTD/sodipodi-0.dtd"
   xmlns:inkscape="http://www.inkscape.org/namespaces/inkscape"
   width="100"
   height="87"
   viewBox="0 0 26.458333 23.018751"
   version="1.1"
   id="svg2105"
   inkscape:version="0.92.4 (unknown)"
   sodipodi:docname="send.svg">
  <defs
     id="defs2099" />
  <sodipodi:namedview
     id="base"
     pagecolor="#ffffff"
     bordercolor="#666666"
     borderopacity="1.0"
     inkscape:pageopacity="0.0"
     inkscape:pageshadow="2"
     inkscape:zoom="6.4029851"
     inkscape:cx="51.5"
     inkscape:cy="47"
     inkscape:document-units="mm"
     inkscape:current-layer="layer1"
     showgrid="false"
     units="px"
     inkscape:window-width="1920"
     inkscape:window-height="1027"
     inkscape:window-x="1920"
     inkscape:window-y="0"
     inkscape:window-maximized="1" />
  <metadata
     id="metadata2102">
    <rdf:RDF>
      <cc:Work
         rdf:about="">
        <dc:format>image/svg+xml</dc:format>
        <dc:type
           rdf:resource="http://purl.org/dc/dcmitype/StillImage" />
        <dc:title></dc:title>
      </cc:Work>
    </rdf:RDF>
  </metadata>
  <g
     inkscape:label="Layer 1"
     inkscape:groupmode="layer"
     id="layer1"
     transform="translate(0,-273.98123)">
    <path
       style="fill:#333333;stroke-width:0.04230025;fill-opacity:1"
       d="m 0.45867455,292.38964 c 0,-2.36141 0.004783,-4.29356 0.0105618,-4.29365 0.0193504,-3.2e-4 1.60465545,-0.2082 2.56974005,-0.33696 0.5234656,-0.0699 1.4561858,-0.19415 2.0727115,-0.27623 0.6165258,-0.0821 1.5397291,-0.20501 2.0515618,-0.2732 0.5118336,-0.0682 1.1590262,-0.15404 1.4382093,-0.19077 0.6509999,-0.0856 2.116889,-0.28164 3.489771,-0.46663 0.59326,-0.0799 1.506945,-0.2024 2.030411,-0.27213 0.523466,-0.0697 1.380045,-0.1841 1.903511,-0.25416 0.523465,-0.07 1.180177,-0.15735 1.459359,-0.194 0.279183,-0.0366 0.674159,-0.0885 0.87773,-0.11529 0.203569,-0.0269 0.370127,-0.0599 0.370127,-0.0739 0,-0.0138 -0.166558,-0.0471 -0.370127,-0.0739 -0.203571,-0.0267 -0.598547,-0.0786 -0.87773,-0.1153 -0.279182,-0.0366 -0.935894,-0.12394 -1.459359,-0.19399 -0.523466,-0.07 -1.380045,-0.18441 -1.903511,-0.25416 -0.523466,-0.0697 -1.437151,-0.19219 -2.030411,-0.27213 -1.372882,-0.18498 -2.8387711,-0.38099 -3.489771,-0.46664 -0.2791831,-0.0367 -0.9263757,-0.12256 -1.4382093,-0.19074 -0.5118327,-0.0682 -1.435036,-0.19115 -2.0515618,-0.27323 -0.6165257,-0.0821 -1.5492459,-0.20638 -2.0727115,-0.27621 -0.9650846,-0.12876 -2.55039005,-0.33664 -2.56974005,-0.33697 -0.005853,-9e-5 -0.0105618,-1.93223 -0.0105618,-4.29364 0,-2.36141 0.009556,-4.29348 0.0212477,-4.29348 0.0116875,0 0.75881485,0.31687 1.66028355,0.70417 1.8895127,0.81178 1.811929,0.77853 3.7328995,1.60061 0.8026478,0.34349 2.4587025,1.05325 3.6801219,1.57724 1.2214198,0.52399 2.3635268,1.01377 2.5380158,1.08839 0.174488,0.0747 1.107209,0.47417 2.072711,0.88789 0.965504,0.41372 2.61204,1.11918 3.658971,1.56771 1.046932,0.44851 2.788645,1.19529 3.870473,1.65948 1.08183,0.46419 2.509461,1.07545 3.172519,1.35835 1.369179,0.58415 1.359258,0.57917 1.269008,0.63761 -0.0349,0.0226 -0.605951,0.27256 -1.269008,0.55545 -0.663058,0.28288 -2.090689,0.89414 -3.172519,1.35833 -1.081828,0.4642 -2.823541,1.21098 -3.870473,1.6595 -1.046931,0.44852 -2.693467,1.154 -3.658971,1.5677 -0.965502,0.41371 -1.898223,0.81327 -2.072711,0.88789 -0.174489,0.0747 -1.316596,0.5644 -2.5380158,1.0884 -1.2214194,0.52398 -2.8774741,1.23374 -3.6801219,1.57724 -1.9209705,0.82208 -1.8433868,0.78881 -3.7328995,1.60059 -0.9014687,0.3873 -1.64859635,0.70418 -1.66028355,0.70418 -0.0116875,0 -0.0212477,-1.93206 -0.0212477,-4.29347 z"
       id="path2683"
       inkscape:connector-curvature="0" />
  </g>
</svg>
