<?xml version="1.0" encoding="UTF-8" standalone="no"?>
<!-- Generator: Adobe Illustrator 16.0.0, SVG Export Plug-In . SVG Version: 6.00 Build 0)  -->

<svg
   xmlns:dc="http://purl.org/dc/elements/1.1/"
   xmlns:cc="http://creativecommons.org/ns#"
   xmlns:rdf="http://www.w3.org/1999/02/22-rdf-syntax-ns#"
   xmlns:svg="http://www.w3.org/2000/svg"
   xmlns="http://www.w3.org/2000/svg"
   xmlns:sodipodi="http://sodipodi.sourceforge.net/DTD/sodipodi-0.dtd"
   xmlns:inkscape="http://www.inkscape.org/namespaces/inkscape"
   version="1.1"
   id="Capa_1"
   x="0px"
   y="0px"
   width="100"
   height="100"
   viewBox="0 0 100 100"
   xml:space="preserve"
   sodipodi:docname="spinner.svg"
   inkscape:version="0.92.4 (5da689c313, 2019-01-14)"><metadata
   id="metadata906"><rdf:RDF><cc:Work
       rdf:about=""><dc:format>image/svg+xml</dc:format><dc:type
         rdf:resource="http://purl.org/dc/dcmitype/StillImage" /><dc:title></dc:title></cc:Work></rdf:RDF></metadata><defs
   id="defs904" /><sodipodi:namedview
   pagecolor="#ffffff"
   bordercolor="#666666"
   borderopacity="1"
   objecttolerance="10"
   gridtolerance="10"
   guidetolerance="10"
   inkscape:pageopacity="0"
   inkscape:pageshadow="2"
   inkscape:window-width="1920"
   inkscape:window-height="1017"
   id="namedview902"
   showgrid="false"
   inkscape:zoom="5.7805865"
   inkscape:cx="61.306592"
   inkscape:cy="44.89261"
   inkscape:window-x="-8"
   inkscape:window-y="-8"
   inkscape:window-maximized="1"
   inkscape:current-layer="Capa_1"
   showguides="true"
   inkscape:guide-bbox="true"><sodipodi:guide
     position="144.622,-41.172293"
     orientation="0,1"
     id="guide5723"
     inkscape:locked="false" /></sodipodi:namedview>
<g
   id="g869"
   transform="matrix(0.17219771,0,0,0.17219771,8.0925669,3.9305456)"
   style="fill:#333333;fill-opacity:1">
	<path
   d="M 516.727,266.696 C 516.062,231.871 508.506,197.156 494.552,165.413 480.644,133.642 460.458,104.862 435.676,81.08 410.909,57.28 381.537,38.465 349.747,26.053 317.974,13.593 283.81,7.641 250.06,8.363 216.305,9.031 182.7,16.37 151.969,29.902 121.215,43.39 93.354,62.96 70.337,86.973 47.304,110.974 29.108,139.425 17.115,170.202 5.077,200.962 -0.66,234.013 0.06,266.696 c 0.67,32.688 7.793,65.182 20.903,94.899 13.067,29.738 32.019,56.681 55.266,78.931 23.234,22.268 50.766,39.846 80.528,51.417 29.749,11.616 61.69,17.136 93.303,16.419 31.62,-0.671 63.001,-7.58 91.707,-20.268 28.724,-12.646 54.747,-30.979 76.231,-53.461 21.503,-22.469 38.461,-49.08 49.611,-77.827 6.79,-17.427 11.396,-35.624 13.824,-54.062 0.649,0.037 1.302,0.063 1.96,0.063 18.409,0 33.333,-14.923 33.333,-33.333 0,-0.936 -0.049,-1.861 -0.124,-2.777 z m -52.965,88.514 c -12.226,27.71 -29.94,52.812 -51.655,73.532 -21.703,20.732 -47.396,37.076 -75.127,47.807 -27.724,10.77 -57.443,15.859 -86.919,15.146 -29.481,-0.677 -58.644,-7.154 -85.323,-18.997 C 138.046,460.892 113.861,443.797 93.908,422.849 73.94,401.911 58.217,377.138 47.907,350.422 37.558,323.71 32.684,295.101 33.395,266.694 c 0.678,-28.413 6.941,-56.465 18.361,-82.131 11.384,-25.677 27.863,-48.943 48.045,-68.13 20.172,-19.202 44.026,-34.307 69.726,-44.195 25.697,-9.928 53.195,-14.587 80.534,-13.877 27.343,0.68 54.286,6.728 78.939,17.726 24.662,10.963 47.008,26.824 65.429,46.241 18.436,19.405 32.922,42.341 42.391,67.025 9.504,24.684 13.948,51.072 13.241,77.342 h 0.125 c -0.076,0.916 -0.125,1.841 -0.125,2.777 0,17.193 13.018,31.34 29.732,33.137 -3.242,18.138 -8.609,35.844 -16.031,52.601 z"
   id="path867"
   inkscape:connector-curvature="0"
   style="fill:#333333;fill-opacity:1" />
</g>
<g
   id="g871"
   transform="translate(0.84254598,-417.24597)">
</g>
<g
   id="g873"
   transform="translate(0.84254598,-417.24597)">
</g>
<g
   id="g875"
   transform="translate(0.84254598,-417.24597)">
</g>
<g
   id="g877"
   transform="translate(0.84254598,-417.24597)">
</g>
<g
   id="g879"
   transform="translate(0.84254598,-417.24597)">
</g>
<g
   id="g881"
   transform="translate(0.84254598,-417.24597)">
</g>
<g
   id="g883"
   transform="translate(0.84254598,-417.24597)">
</g>
<g
   id="g885"
   transform="translate(0.84254598,-417.24597)">
</g>
<g
   id="g887"
   transform="translate(0.84254598,-417.24597)">
</g>
<g
   id="g889"
   transform="translate(0.84254598,-417.24597)">
</g>
<g
   id="g891"
   transform="translate(0.84254598,-417.24597)">
</g>
<g
   id="g893"
   transform="translate(0.84254598,-417.24597)">
</g>
<g
   id="g895"
   transform="translate(0.84254598,-417.24597)">
</g>
<g
   id="g897"
   transform="translate(0.84254598,-417.24597)">
</g>
<g
   id="g899"
   transform="translate(0.84254598,-417.24597)">
</g>
</svg>