<?xml version="1.0" encoding="UTF-8" standalone="no"?>
<!-- Generator: Adobe Illustrator 16.0.4, SVG Export Plug-In . SVG Version: 6.00 Build 0)  -->

<svg
   xmlns:dc="http://purl.org/dc/elements/1.1/"
   xmlns:cc="http://creativecommons.org/ns#"
   xmlns:rdf="http://www.w3.org/1999/02/22-rdf-syntax-ns#"
   xmlns:svg="http://www.w3.org/2000/svg"
   xmlns="http://www.w3.org/2000/svg"
   xmlns:sodipodi="http://sodipodi.sourceforge.net/DTD/sodipodi-0.dtd"
   xmlns:inkscape="http://www.inkscape.org/namespaces/inkscape"
   version="1.1"
   id="Layer_1"
   x="0px"
   y="0px"
   width="100"
   height="100"
   viewBox="0 0 100 100"
   enable-background="new 0 0 24 24"
   xml:space="preserve"
   sodipodi:docname="unlocked.svg"
   inkscape:version="0.92.4 (unknown)"><metadata
   id="metadata889"><rdf:RDF><cc:Work
       rdf:about=""><dc:format>image/svg+xml</dc:format><dc:type
         rdf:resource="http://purl.org/dc/dcmitype/StillImage" /><dc:title></dc:title></cc:Work></rdf:RDF></metadata><defs
   id="defs887" /><sodipodi:namedview
   pagecolor="#ffffff"
   bordercolor="#666666"
   borderopacity="1"
   objecttolerance="10"
   gridtolerance="10"
   guidetolerance="10"
   inkscape:pageopacity="0"
   inkscape:pageshadow="2"
   inkscape:window-width="1920"
   inkscape:window-height="1027"
   id="namedview885"
   showgrid="false"
   showguides="true"
   inkscape:guide-bbox="true"
   inkscape:snap-global="true"
   inkscape:zoom="4.9466064"
   inkscape:cx="55.235572"
   inkscape:cy="21.056957"
   inkscape:window-x="1920"
   inkscape:window-y="0"
   inkscape:window-maximized="1"
   inkscape:current-layer="Layer_1"
   inkscape:snap-to-guides="true"
   inkscape:snap-grids="false" />
<g
   transform="matrix(6.515986,0,0,-6.515986,-27.994107,10651.235)"
   id="g882"
   style="fill:#76d385;fill-opacity:1">
	<path
   d="m 16.529152,1630.9592 c -0.94433,-0.4333 -1.433231,-0.6585 -2.258477,-1.0413 -0.233008,0.4831 -0.347882,0.8894 -0.703371,1.1763 -0.435464,0.3516 -0.903299,0.5384 -1.590299,0.5384 -1.336,0 -2.5720886,-0.7785 -2.504,-2.332 v -1.426 h 9.078 v -8.2268 H 7.125 c -0.461,0 -0.855,0.164 -1.184,0.492 -0.329,0.328 -0.492,0.727 -0.492,1.195 v 6.5398 H 7 v 1.437 c 0,1.406 0.43,2.594 1.289,3.562 0.859,0.968 2.43,1.453 3.711,1.453 1.281,0 2.261966,-0.3853 3.120176,-1.0731 0.700291,-0.5613 1.124183,-1.5471 1.408976,-2.2943 z"
   id="path880"
   inkscape:connector-curvature="0"
   sodipodi:nodetypes="ccasscccsssccsssac"
   style="fill:#76d385;fill-opacity:1" />
</g>
<path
   style="opacity:1;fill:#ffffff;fill-opacity:1;stroke:none;stroke-width:19.42397499;stroke-linecap:round;stroke-linejoin:round;stroke-miterlimit:4;stroke-dasharray:none;stroke-dashoffset:0;stroke-opacity:1"
   d="m 42.860818,84.604728 c -0.693258,-0.695841 -0.62958,-1.004229 1.617824,-7.837709 l 2.339481,-7.113383 -1.857603,-1.803928 c -3.064805,-2.976261 -3.461173,-6.316243 -1.100829,-9.276004 3.134411,-3.930401 8.216749,-4.398847 12.134564,-1.118478 3.537983,2.962342 3.528388,7.338213 -0.02324,10.564304 l -1.776505,1.613709 2.217356,6.770434 c 1.219549,3.723748 2.217364,6.991886 2.217364,7.262529 0,0.270684 -0.289985,0.755504 -0.64444,1.077472 -0.534645,0.485705 -1.816624,0.585387 -7.523418,0.585387 -6.292576,0 -6.940472,-0.06179 -7.600604,-0.724345 z"
   id="path904"
   inkscape:connector-curvature="0" /></svg>